<?xml version="1.0" encoding="UTF-8" standalone="no"?>
<svg width="18px" height="18px" viewBox="0 0 18 18" version="1.1" xmlns="http://www.w3.org/2000/svg" xmlns:xlink="http://www.w3.org/1999/xlink">
    <!-- Generator: Sketch 40 (33762) - http://www.bohemiancoding.com/sketch -->
    <title>breakingpage</title>
    <desc>Created with Sketch.</desc>
    <defs></defs>
    <g id="Purple-Box" stroke="none" stroke-width="1" fill="none" fill-rule="evenodd">
        <g transform="translate(-416.000000, -453.000000)" id="bam!-breaking-the-page-copy-2" fill="#FCBA33">
            <g transform="translate(416.000000, 453.000000)">
                <path d="M9,0.195652174 C4.14436025,0.195652174 0.195652174,4.14436025 0.195652174,9 C0.195652174,13.8556398 4.14436025,17.8043478 9,17.8043478 C13.8556398,17.8043478 17.8043478,13.8556398 17.8043478,9 C17.8043478,4.14436025 13.8556398,0.195652174 9,0.195652174 Z M11.4855899,13.4104441 L11.0770798,13.0206768 L12.1004711,12.2169579 L11.0462451,12.2169579 L11.2344781,10.8707087 L9.80318142,11.7957512 L9.40333734,9.34509392 L8.69474269,11.0865519 L7.32572009,10.1709815 L7.75256977,11.92957 L6.55424673,12.3114775 L7.88235787,13.4104441 L11.4855899,13.4104441 Z M6.71567572,13.4104441 L5.02863197,12.0067576 L6.86843873,11.4319818 L6.16387477,8.48857309 L8.34931288,9.95997512 L9.70402654,6.61249015 L10.3503471,10.5567182 L12.1949907,9.37653328 L11.8989368,11.4769239 L14.2629343,11.4769239 L12.2129272,13.0789202 L12.5672245,13.4104441 L15.3312677,13.4104441 L14.4739407,12.5986639 L17.2073506,10.4668339 L13.0607821,10.4668339 L13.4962977,7.348695 L11.0998532,8.87894505 L10.1212026,2.8927713 L7.87772258,8.42549285 L4.57054447,6.2039801 L5.66548041,10.7503927 L2.95101472,11.5982476 L5.13645283,13.4104441 L6.71567572,13.4104441 Z" id="breakingpage"></path>
            </g>
        </g>
    </g>
</svg>