<?xml version="1.0" encoding="UTF-8" standalone="no"?>
<svg width="18px" height="18px" viewBox="0 0 18 18" version="1.1" xmlns="http://www.w3.org/2000/svg" xmlns:xlink="http://www.w3.org/1999/xlink">
    <!-- Generator: Sketch 40 (33762) - http://www.bohemiancoding.com/sketch -->
    <title>warning</title>
    <desc>Created with Sketch.</desc>
    <defs></defs>
    <g id="Purple-Box" stroke="none" stroke-width="1" fill="none" fill-rule="evenodd">
        <g transform="translate(-373.000000, -453.000000)" id="warning" fill="#FEB032">
            <g transform="translate(373.000000, 453.000000)">
                <path d="M9,0.630434783 C4.38414493,0.630434783 0.630434783,4.38414493 0.630434783,9 C0.630434783,13.6158551 4.38414493,17.3695652 9,17.3695652 C13.6158551,17.3695652 17.3695652,13.6158551 17.3695652,9 C17.3695652,4.38414493 13.6158551,0.630434783 9,0.630434783 Z M4.64292811,11.7898551 C5.25041165,11.7898551 5.75695234,11.3607567 5.87871693,10.8813695 C6.00048152,11.3612437 6.50702222,11.7237369 7.114384,11.7237369 C7.72418106,11.7237369 8.23266999,11.3650184 8.35151223,10.8827089 C8.4709633,11.3650184 8.97945223,11.7365222 9.58876224,11.7365222 C10.1946628,11.7365222 10.7012035,11.3949725 10.8234552,10.9165594 C10.9457068,11.3949725 11.4522475,11.789368 12.0582699,11.789368 C12.3536708,11.789368 12.6247188,11.699384 12.839755,11.5595982 C11.0095115,8.71809975 12.1453316,4.13768116 12.1453316,4.13768116 C6.94647063,5.23161424 4.66581985,10.1003714 4.05797101,11.6661422 C4.23294673,11.7432192 4.43178831,11.7898551 4.64292811,11.7898551 Z" id="warningtrackers"></path>
            </g>
        </g>
    </g>
</svg>