<?xml version="1.0" encoding="UTF-8" standalone="no"?>
<svg width="17px" height="17px" viewBox="0 0 17 17" version="1.1" xmlns="http://www.w3.org/2000/svg" xmlns:xlink="http://www.w3.org/1999/xlink">
    <!-- Generator: Sketch 40 (33762) - http://www.bohemiancoding.com/sketch -->
    <title>slowtrackers</title>
    <desc>Created with Sketch.</desc>
    <defs></defs>
    <g id="Purple-Box" stroke="none" stroke-width="1" fill="none" fill-rule="evenodd">
        <g transform="translate(-395.000000, -454.000000)" id="slowtrackers" fill="#FCBA33">
            <path d="M403.5,454 C398.81221,454 395,457.81221 395,462.5 C395,467.18779 398.81221,471 403.5,471 C408.18779,471 412,467.18779 412,462.5 C412,457.81221 408.18779,454 403.5,454 Z M409.609584,465.178654 C409.530259,465.15409 408.677283,464.74642 407.561091,464.362637 C408.484378,463.74561 409.094418,462.693645 409.094418,461.501733 C409.094418,459.605581 407.551401,458.062338 405.655249,458.062338 C403.759097,458.062338 402.215854,459.605581 402.215854,461.501733 C402.215854,462.04935 402.345208,462.566769 402.573269,463.026497 C402.788034,463.068638 403.34444,463.175232 404.223782,463.323968 C405.204535,463.490281 405.852436,463.356419 406.391039,462.876634 C406.728172,462.576459 406.928064,462.163606 406.953529,461.713794 C406.980121,461.263981 406.829583,460.829944 406.529408,460.493712 C406.046919,459.952405 405.215127,459.903953 404.672693,460.385541 C404.239557,460.771126 404.185021,461.444492 404.552127,461.857346 C404.840133,462.180507 405.369947,462.217466 405.686799,461.93577 C405.803984,461.83188 405.873394,461.692835 405.880606,461.544776 C405.88669,461.42421 405.850633,461.31063 405.780998,461.234009 C405.718574,461.1655 405.619192,461.127641 405.51688,461.128542 C405.429892,461.131021 405.317214,461.1655 405.244198,461.237615 C405.226395,461.254291 405.204535,461.264883 405.179746,461.264883 C405.126111,461.264883 405.083068,461.216431 405.083068,461.157613 C405.083068,461.121331 405.097941,461.094964 405.116421,461.069498 C405.226395,460.91896 405.38144,460.831747 405.535359,460.818676 C405.744039,460.801099 405.913057,460.860818 406.046919,461.007751 C406.179879,461.154007 406.249289,461.34849 406.23712,461.563255 C406.223824,461.80619 406.112948,462.032448 405.923649,462.200564 C405.45716,462.616122 404.707173,462.566093 404.28553,462.093294 C403.789745,461.535987 403.858479,460.632081 404.435167,460.117817 C405.123407,459.505297 406.182584,459.56682 406.794202,460.255284 C407.157026,460.66273 407.340016,461.188262 407.308466,461.733174 C407.276691,462.278988 407.034658,462.779055 406.626987,463.141654 C406.168386,463.550226 405.632262,463.746512 404.946502,463.746512 C404.70537,463.746512 404.444857,463.721722 404.163162,463.674397 C403.192099,463.509662 402.155007,463.324869 402.015962,463.305488 C401.317131,463.212191 400.736161,462.737589 400.717682,462.039659 L400.894587,458.987653 C400.894587,458.791367 400.73526,458.631138 400.538072,458.631138 C400.340885,458.631138 400.181558,458.790465 400.181558,458.987653 C400.181558,458.987653 400.285447,460.841437 400.297617,461.075583 C400.320603,461.520212 399.91113,461.876726 399.460416,461.876726 C398.998435,461.876726 398.587159,461.500831 398.623441,461.039526 C398.643498,460.784197 398.664682,460.520079 398.685865,460.272862 L398.759782,459.009512 C398.759782,458.813226 398.600455,458.652998 398.403268,458.652998 C398.20608,458.652998 398.046753,458.812325 398.046753,459.009512 L398.220278,461.999997 L398.220278,462.00518 C398.220278,464.097617 399.417373,465.802892 401.510712,465.801089 C403.622531,465.798385 409.608683,465.801089 409.608683,465.801089 C409.781081,465.801089 409.920351,465.661143 409.920351,465.489421 C409.920351,465.317023 409.773193,465.230711 409.609584,465.178654 Z"></path>
        </g>
    </g>
</svg>